<svg width="77" height="29" viewBox="0 0 77 29" fill="none" xmlns="http://www.w3.org/2000/svg">
<path d="M7.01761 14.2452C7.41504 12.0027 8.14876 10.7739 9.86076 10.7739C11.3893 10.7739 12.0313 11.972 11.6645 14.0916L10.1053 23.0004H15.1496L16.8922 12.9857C17.5953 8.9614 15.6999 6.16588 12.2759 6.16588C10.411 6.16588 8.82133 7.05676 7.59847 8.53132L8.88247 0.943481H4.26619L0.414185 23.0004H5.45847L7.01761 14.2452Z" fill="#1D1D1F"/>
<path d="M49.141 13.2315C49.141 9.05356 46.1144 6.16588 41.7733 6.16588C38.7161 6.16588 35.7507 7.79404 33.6413 10.8046C32.3267 8.00908 29.8504 6.16588 26.885 6.16588C21.5656 6.16588 17.4996 10.5281 17.4996 16.2728C17.4996 20.42 20.4956 23.3076 24.8367 23.3076C28.0467 23.3076 30.8593 21.6795 32.9687 18.6382C34.375 21.5873 37.0653 23.3076 40.0918 23.3076C45.4418 23.3076 49.141 18.9761 49.141 13.2315ZM22.8496 15.7505C22.8496 12.8936 24.6227 10.7432 26.9767 10.7432C28.6276 10.7432 29.8198 11.972 30.951 14.7675C29.1778 17.2865 27.2518 18.7304 25.6927 18.7304C23.9196 18.7304 22.8496 17.6552 22.8496 15.7505ZM35.7201 14.7675C37.5238 12.0334 39.2053 10.7432 40.9784 10.7432C42.721 10.7432 43.7604 11.8798 43.7604 13.723C43.7604 16.6107 42.0484 18.7304 39.6944 18.7304C38.0436 18.7304 36.729 17.4094 35.7201 14.7675Z" fill="#1D1D1F"/>
<path d="M66.9097 13.0779C66.9097 9.02284 64.4028 6.1966 60.9177 6.1966C58.9 6.1966 57.0962 7.08748 55.9957 8.5006L56.332 6.47308H51.7157L47.772 28.9294H52.8162L54.2837 20.7579C54.9868 22.3553 56.6071 23.3076 58.6554 23.3076C63.3022 23.3076 66.9097 18.8532 66.9097 13.0779ZM61.6208 13.6616C61.6208 16.6414 60.0922 18.7304 57.8605 18.7304C56.3625 18.7304 55.262 17.563 55.262 15.812C55.262 12.7707 56.8211 10.7432 59.0222 10.7432C60.5202 10.7432 61.6208 11.9412 61.6208 13.6616Z" fill="#1D1D1F"/>
<path d="M72.4467 15.9041L76.4515 0.943481H69.9704L68.6253 15.9041H72.4467ZM73.211 19.4062C73.211 17.9009 72.141 16.795 70.429 16.795C68.3195 16.795 66.5158 18.5153 66.5158 20.5736C66.5158 22.1096 67.647 23.154 69.3284 23.154C71.4378 23.154 73.211 21.403 73.211 19.4062Z" fill="#1D1D1F"/>
</svg>
